<svg xmlns="http://www.w3.org/2000/svg" width="289" height="78" viewBox="0 0 289 78" role="img" aria-label="Drizzle">
  <!-- This file is auto-generated by scripts/update-main-readme.mjs. -->
  <g fill="#111827">
    <path d="M360 737Q548 737 657 691.5Q766 646 809.5 565.5Q853 485 853 368Q853 257 803 174Q753 91 653 45.5Q553 0 407 0Q318 0 226 0Q134 0 40 1Q48 198 48 368Q48 540 40 727Q159 737 360 737ZM435 199Q528 199 559 244Q590 289 590 368Q590 444 557.5 491Q525 538 435 538Q338 538 290 532L290 199Z" transform="translate(4 59.68) scale(0.048 -0.048)"/>
    <path d="M843 484Q843 397 800.5 337Q758 277 655 250Q667 234 672 225L834 0L562 0Q518 82 423 232L276 232L276 0L40 0Q48 194 48 363Q48 532 40 726L276 726L276 725L481 725Q683 725 763 660Q843 595 843 484ZM276 533L276 419L411 419Q496 419 539.5 424.5Q583 430 600 442Q617 454 617 477Q617 499 601 511Q585 523 541 528Q497 533 411 533Z" transform="translate(46.864000000000004 59.68) scale(0.048 -0.048)"/>
    <path d="M621 527Q502 533 445 534L445 192Q503 193 621 199L621 0L40 0L40 199Q155 193 215 192L215 534Q155 533 40 527L40 726L621 726Z" transform="translate(89.248 59.68) scale(0.048 -0.048)"/>
    <path d="M372 197Q429 198 666 205Q696 206 736 208Q776 210 825 211Q818 164 816.5 117Q815 70 815 0L48 0L48 223Q103 254 168 299.5Q233 345 336 419Q432 489 475 519Q396 518 158 508Q76 504 48 503Q48 577 46.5 627Q45 677 40 726L815 726L815 502Q762 467 619 366Q459 252 372 197Z" transform="translate(120.976 59.68) scale(0.048 -0.048)"/>
    <path d="M372 197Q429 198 666 205Q696 206 736 208Q776 210 825 211Q818 164 816.5 117Q815 70 815 0L48 0L48 223Q103 254 168 299.5Q233 345 336 419Q432 489 475 519Q396 518 158 508Q76 504 48 503Q48 577 46.5 627Q45 677 40 726L815 726L815 502Q762 467 619 366Q459 252 372 197Z" transform="translate(162.496 59.68) scale(0.048 -0.048)"/>
    <path d="M284 202Q574 204 764 212Q751 161 748 114Q745 67 745 0L40 0Q48 194 48 363Q48 532 40 726L284 726Z" transform="translate(204.01600000000002 59.68) scale(0.048 -0.048)"/>
    <path d="M276 183Q656 185 827 194Q820 153 818.5 109.5Q817 66 817 0L40 0Q48 194 48 363Q48 532 40 726L817 726L817 545L276 545L276 449Q324 448 418 448Q577 448 747 454L747 282Q577 288 418 288Q324 288 276 287Z" transform="translate(242.608 59.68) scale(0.048 -0.048)"/>
  </g>
</svg>
