<svg xmlns="http://www.w3.org/2000/svg" width="373" height="78" viewBox="0 0 373 78" role="img" aria-label="Shadcn/ui">
  <!-- This file is auto-generated by scripts/update-main-readme.mjs. -->
  <g fill="#111827">
    <path d="M40 86Q74 137 96.5 181Q119 225 140 283Q211 242 305 219Q399 196 480 196Q563 196 597 210.5Q631 225 631 242Q631 303 445 303Q241 303 149 345.5Q57 388 57 483Q57 618 169 682Q281 746 460 746Q564 746 673.5 719.5Q783 693 871 647Q842 581 810 486Q804 466 800 456Q749 497 646 524.5Q543 552 464 552Q369 552 336 539.5Q303 527 303 503Q303 479 348.5 464.5Q394 450 480 450Q692 450 788 401.5Q884 353 884 253Q884 113 782 51.5Q680 -10 473 -10Q362 -10 247 14.5Q132 39 40 86Z" transform="translate(4 59.68) scale(0.048 -0.048)"/>
    <path d="M878 726Q871 557 871 363Q871 169 878 0L643 0L643 272L275 272L275 0L40 0Q48 194 48 363Q48 532 40 726L275 726L275 454L643 454L643 726Z" transform="translate(48.352000000000004 59.68) scale(0.048 -0.048)"/>
    <path d="M671 0Q652 57 620 143L301 143L251 0L0 0L280 726L648 726L930 0ZM563 299Q525 404 485 509L461 574Q426 483 358 299Z" transform="translate(92.416 59.68) scale(0.048 -0.048)"/>
    <path d="M360 737Q548 737 657 691.5Q766 646 809.5 565.5Q853 485 853 368Q853 257 803 174Q753 91 653 45.5Q553 0 407 0Q318 0 226 0Q134 0 40 1Q48 198 48 368Q48 540 40 727Q159 737 360 737ZM435 199Q528 199 559 244Q590 289 590 368Q590 444 557.5 491Q525 538 435 538Q338 538 290 532L290 199Z" transform="translate(136.72 59.68) scale(0.048 -0.048)"/>
    <path d="M480 -10Q254 -10 147 86Q40 182 40 360Q40 539 147 643Q254 747 480 747Q796 747 903 530Q813 499 692 437Q663 493 600.5 520Q538 547 473 547Q377 547 330 496.5Q283 446 283 372Q283 292 333.5 241.5Q384 191 488 191Q571 191 620 218.5Q669 246 692 306Q774 262 902 207Q852 86 735 38Q618 -10 480 -10Z" transform="translate(179.584 59.68) scale(0.048 -0.048)"/>
    <path d="M879 725Q872 556 872 363Q872 169 879 0L521 0L279 546L297 0L40 0Q48 194 48 363Q48 531 40 725L408 725L651 164L634 725Z" transform="translate(224.848 59.68) scale(0.048 -0.048)"/>
    <path d="M278 -20L30 -20L221 717L469 717Z" transform="translate(268.96000000000004 59.68) scale(0.048 -0.048)"/>
    <path d="M632 727L880 727L880 329Q878 182 779.5 86Q681 -10 448 -10Q212 -10 125 81.5Q38 173 40 322L40 727L288 727L288 338Q288 294 294.5 266.5Q301 239 336.5 215Q372 191 451 191Q537 191 577 215.5Q617 240 624.5 270Q632 300 632 347Z" transform="translate(292.91200000000003 59.68) scale(0.048 -0.048)"/>
    <path d="M621 527Q502 533 445 534L445 192Q503 193 621 199L621 0L40 0L40 199Q155 193 215 192L215 534Q155 533 40 527L40 726L621 726Z" transform="translate(337.07200000000006 59.68) scale(0.048 -0.048)"/>
  </g>
</svg>
