<svg xmlns="http://www.w3.org/2000/svg" width="410" height="78" viewBox="0 0 410 78" role="img" aria-label="VITE-STACK">
  <!-- This file is auto-generated by scripts/update-main-readme.mjs. -->
  <g fill="#111827">
    <path d="M890 726L824 573Q737 370 687 248Q637 126 595 0L296 0Q255 124 205.5 245.5Q156 367 73 557Q59 589 0 726L278 726Q308 629 367 477Q419 343 451 245Q472 314 501.5 392.5Q531 471 537 488Q595 641 622 726Z" transform="translate(4 59.68) scale(0.048 -0.048)"/>
    <path d="M621 527Q502 533 445 534L445 192Q503 193 621 199L621 0L40 0L40 199Q155 193 215 192L215 534Q155 533 40 527L40 726L621 726Z" transform="translate(47.344 59.68) scale(0.048 -0.048)"/>
    <path d="M899 516Q742 521 594 522L594 0L344 0L344 522Q195 521 40 516L40 726L899 726Z" transform="translate(79.072 59.68) scale(0.048 -0.048)"/>
    <path d="M276 183Q656 185 827 194Q820 153 818.5 109.5Q817 66 817 0L40 0Q48 194 48 363Q48 532 40 726L817 726L817 545L276 545L276 449Q324 448 418 448Q577 448 747 454L747 282Q577 288 418 288Q324 288 276 287Z" transform="translate(124.144 59.68) scale(0.048 -0.048)"/>
    <path d="M460 243L30 243L30 438L460 438Z" transform="translate(165.76 59.68) scale(0.048 -0.048)"/>
    <path d="M40 86Q74 137 96.5 181Q119 225 140 283Q211 242 305 219Q399 196 480 196Q563 196 597 210.5Q631 225 631 242Q631 303 445 303Q241 303 149 345.5Q57 388 57 483Q57 618 169 682Q281 746 460 746Q564 746 673.5 719.5Q783 693 871 647Q842 581 810 486Q804 466 800 456Q749 497 646 524.5Q543 552 464 552Q369 552 336 539.5Q303 527 303 503Q303 479 348.5 464.5Q394 450 480 450Q692 450 788 401.5Q884 353 884 253Q884 113 782 51.5Q680 -10 473 -10Q362 -10 247 14.5Q132 39 40 86Z" transform="translate(189.28 59.68) scale(0.048 -0.048)"/>
    <path d="M899 516Q742 521 594 522L594 0L344 0L344 522Q195 521 40 516L40 726L899 726Z" transform="translate(231.712 59.68) scale(0.048 -0.048)"/>
    <path d="M671 0Q652 57 620 143L301 143L251 0L0 0L280 726L648 726L930 0ZM563 299Q525 404 485 509L461 574Q426 483 358 299Z" transform="translate(272.94399999999996 59.68) scale(0.048 -0.048)"/>
    <path d="M480 -10Q254 -10 147 86Q40 182 40 360Q40 539 147 643Q254 747 480 747Q796 747 903 530Q813 499 692 437Q663 493 600.5 520Q538 547 473 547Q377 547 330 496.5Q283 446 283 372Q283 292 333.5 241.5Q384 191 488 191Q571 191 620 218.5Q669 246 692 306Q774 262 902 207Q852 86 735 38Q618 -10 480 -10Z" transform="translate(315.808 59.68) scale(0.048 -0.048)"/>
    <path d="M562 0Q515 85 406 260L289 144L289 0L40 0Q48 194 48 363Q48 532 40 726L289 726L289 433Q473 615 551 726L875 726L560 414Q630 316 717.5 201Q805 86 876 0Z" transform="translate(361.072 59.68) scale(0.048 -0.048)"/>
  </g>
</svg>
